<svg xmlns="http://www.w3.org/2000/svg" xmlns:xlink="http://www.w3.org/1999/xlink" version="1.1" id="Layer_1" x="0px" y="0px" width="80px" height="80px" viewBox="4.0 -8.0 80.0 108.0" enable-background="new 0 0 80 80" xml:space="preserve">
<g>
	<path fill="#000000" d="M62,67H16c-2.206,0-4-1.794-4-4V17c0-2.206,1.794-4,4-4h46c2.206,0,4,1.794,4,4v46   C66,65.206,64.206,67,62,67z M16,17v46h46.002L62,17H16z"/>
</g>
<g>
	<path fill="#000000" d="M31.907,48h-3.814C26.387,48,25,46.613,25,44.907v-6.814C25,36.387,26.387,35,28.093,35h3.814   C33.613,35,35,36.387,35,38.093v6.814C35,46.613,33.613,48,31.907,48z M29,44h2v-5h-2V44z"/>
</g>
<g>
	<rect x="28" y="46" fill="#000000" width="4" height="13"/>
</g>
<g>
	<rect x="28" y="21" fill="#000000" width="4" height="16"/>
</g>
<g>
	<path fill="#000000" d="M49.907,41h-3.814C44.387,41,43,39.613,43,37.907v-6.814C43,29.387,44.387,28,46.093,28h3.814   C51.613,28,53,29.387,53,31.093v6.814C53,39.613,51.613,41,49.907,41z M47,37h2v-5h-2V37z"/>
</g>
<g>
	<rect x="46" y="39" fill="#000000" width="4" height="20"/>
</g>
<g>
	<rect x="46" y="21" fill="#000000" width="4" height="9"/>
</g>
<text x="0.0" y="94.0" font-size="4.0" font-weight="bold" font-family="Helvetica Neue, Helvetica, Arial-Unicode, Arial, Sans-serif" fill="#000000">Created by Golden Roof</text><text x="0.0" y="98.0" font-size="4.0" font-weight="bold" font-family="Helvetica Neue, Helvetica, Arial-Unicode, Arial, Sans-serif" fill="#000000">from the Noun Project</text></svg>