<?xml version="1.0" encoding="utf-8"?>
<!-- Generator: Adobe Illustrator 19.1.0, SVG Export Plug-In . SVG Version: 6.00 Build 0)  -->
<svg version="1.1" id="Layer_1" xmlns="http://www.w3.org/2000/svg" xmlns:xlink="http://www.w3.org/1999/xlink" x="0px" y="0px"
	 viewBox="0 0 612 792" style="enable-background:new 0 0 612 792;" xml:space="preserve">
<style type="text/css">
	.st0{font-family:'MyriadPro-Regular';}
	.st1{font-size:26px;}
</style>
<text transform="matrix(1 0 0 1 183.2944 96.3333)" class="st0 st1">This is some live text</text>
<g>
	<path d="M161.9,135.4h-5.3v-1.9h13v1.9h-5.4V151h-2.3V135.4z"/>
	<path d="M171.2,132.5h2.3v7.9h0.1c0.4-0.6,0.9-1.2,1.6-1.6c0.7-0.4,1.5-0.6,2.3-0.6c1.7,0,4.4,1,4.4,5.4v7.5h-2.3v-7.2
		c0-2-0.8-3.7-2.9-3.7c-1.5,0-2.7,1-3.1,2.3c-0.1,0.3-0.2,0.7-0.2,1.1v7.6h-2.3V132.5z"/>
	<path d="M188.2,134.9c0,0.8-0.5,1.4-1.5,1.4c-0.8,0-1.4-0.6-1.4-1.4c0-0.8,0.6-1.4,1.4-1.4C187.7,133.4,188.2,134.1,188.2,134.9z
		 M185.7,151v-12.6h2.3V151H185.7z"/>
	<path d="M191.4,148.7c0.7,0.4,1.9,0.9,3,0.9c1.7,0,2.4-0.8,2.4-1.9c0-1.1-0.7-1.7-2.3-2.3c-2.3-0.8-3.3-2.1-3.3-3.6
		c0-2,1.6-3.7,4.3-3.7c1.3,0,2.4,0.4,3.1,0.8l-0.6,1.7c-0.5-0.3-1.4-0.7-2.6-0.7c-1.4,0-2.1,0.8-2.1,1.7c0,1,0.8,1.5,2.4,2.1
		c2.2,0.8,3.3,1.9,3.3,3.8c0,2.2-1.7,3.8-4.7,3.8c-1.4,0-2.7-0.3-3.5-0.9L191.4,148.7z"/>
	<path d="M210.1,134.9c0,0.8-0.5,1.4-1.5,1.4c-0.8,0-1.4-0.6-1.4-1.4c0-0.8,0.6-1.4,1.4-1.4C209.6,133.4,210.1,134.1,210.1,134.9z
		 M207.6,151v-12.6h2.3V151H207.6z"/>
	<path d="M213.3,148.7c0.7,0.4,1.9,0.9,3,0.9c1.7,0,2.4-0.8,2.4-1.9c0-1.1-0.6-1.7-2.3-2.3c-2.3-0.8-3.3-2.1-3.3-3.6
		c0-2,1.6-3.7,4.3-3.7c1.3,0,2.4,0.4,3.1,0.8l-0.6,1.7c-0.5-0.3-1.4-0.7-2.6-0.7c-1.4,0-2.1,0.8-2.1,1.7c0,1,0.8,1.5,2.4,2.1
		c2.2,0.8,3.3,1.9,3.3,3.8c0,2.2-1.7,3.8-4.7,3.8c-1.4,0-2.7-0.3-3.5-0.9L213.3,148.7z"/>
	<path d="M229.1,148.7c0.7,0.4,1.9,0.9,3,0.9c1.7,0,2.4-0.8,2.4-1.9c0-1.1-0.7-1.7-2.3-2.3c-2.3-0.8-3.3-2.1-3.3-3.6
		c0-2,1.6-3.7,4.3-3.7c1.3,0,2.4,0.4,3.1,0.8l-0.6,1.7c-0.5-0.3-1.4-0.7-2.6-0.7c-1.4,0-2.1,0.8-2.1,1.7c0,1,0.8,1.5,2.4,2.1
		c2.2,0.8,3.3,1.9,3.3,3.8c0,2.2-1.7,3.8-4.7,3.8c-1.4,0-2.7-0.3-3.5-0.9L229.1,148.7z"/>
	<path d="M251.1,144.6c0,4.7-3.2,6.7-6.3,6.7c-3.4,0-6-2.5-6-6.5c0-4.2,2.8-6.7,6.2-6.7C248.7,138.1,251.1,140.8,251.1,144.6z
		 M241.2,144.7c0,2.8,1.6,4.8,3.8,4.8c2.2,0,3.8-2.1,3.8-4.9c0-2.1-1.1-4.8-3.8-4.8S241.2,142.3,241.2,144.7z"/>
	<path d="M254,141.8c0-1.3,0-2.4-0.1-3.4h2l0.1,2h0.1c0.7-1.2,1.9-2.3,4-2.3c1.7,0,3,1,3.6,2.5h0.1c0.4-0.7,0.9-1.2,1.4-1.6
		c0.8-0.6,1.6-0.9,2.8-0.9c1.7,0,4.1,1.1,4.1,5.5v7.4h-2.2v-7.1c0-2.4-0.9-3.9-2.7-3.9c-1.3,0-2.3,1-2.7,2.1
		c-0.1,0.3-0.2,0.7-0.2,1.1v7.8h-2.2v-7.5c0-2-0.9-3.5-2.6-3.5c-1.4,0-2.5,1.1-2.8,2.3c-0.1,0.3-0.2,0.7-0.2,1.1v7.6H254V141.8z"/>
	<path d="M277,145.1c0.1,3.1,2,4.4,4.3,4.4c1.6,0,2.6-0.3,3.5-0.7l0.4,1.6c-0.8,0.4-2.2,0.8-4.2,0.8c-3.9,0-6.2-2.5-6.2-6.3
		c0-3.8,2.2-6.8,5.9-6.8c4.1,0,5.2,3.6,5.2,5.9c0,0.5-0.1,0.8-0.1,1.1H277z M283.7,143.5c0-1.5-0.6-3.7-3.2-3.7
		c-2.3,0-3.3,2.1-3.5,3.7H283.7z"/>
	<path d="M305.6,144.6c0,4.7-3.2,6.7-6.3,6.7c-3.4,0-6-2.5-6-6.5c0-4.2,2.8-6.7,6.2-6.7C303.2,138.1,305.6,140.8,305.6,144.6z
		 M295.7,144.7c0,2.8,1.6,4.8,3.8,4.8c2.2,0,3.8-2.1,3.8-4.9c0-2.1-1.1-4.8-3.8-4.8C296.8,139.8,295.7,142.3,295.7,144.7z"/>
	<path d="M319.1,147.6c0,1.3,0,2.4,0.1,3.4h-2l-0.1-2.1h-0.1c-0.6,1-1.9,2.3-4.2,2.3c-2,0-4.3-1.1-4.3-5.5v-7.4h2.3v7
		c0,2.4,0.7,4,2.8,4c1.5,0,2.6-1.1,3-2.1c0.1-0.3,0.2-0.8,0.2-1.2v-7.7h2.3V147.6z"/>
	<path d="M325.6,134.8v3.6h3.3v1.7h-3.3v6.8c0,1.6,0.4,2.4,1.7,2.4c0.6,0,1-0.1,1.3-0.2l0.1,1.7c-0.4,0.2-1.1,0.3-2,0.3
		c-1.1,0-1.9-0.3-2.5-1c-0.6-0.7-0.9-1.8-0.9-3.3v-6.9h-2v-1.7h2v-3L325.6,134.8z"/>
	<path d="M331.5,132.5h2.3V151h-2.3V132.5z"/>
	<path d="M340.1,134.9c0,0.8-0.5,1.4-1.5,1.4c-0.8,0-1.4-0.6-1.4-1.4c0-0.8,0.6-1.4,1.4-1.4C339.6,133.4,340.1,134.1,340.1,134.9z
		 M337.6,151v-12.6h2.3V151H337.6z"/>
	<path d="M343.7,141.8c0-1.3,0-2.4-0.1-3.4h2l0.1,2.1h0.1c0.6-1.2,2.1-2.4,4.2-2.4c1.7,0,4.4,1,4.4,5.4v7.5h-2.3v-7.3
		c0-2-0.8-3.7-2.9-3.7c-1.5,0-2.7,1.1-3.1,2.3c-0.1,0.3-0.2,0.7-0.2,1.1v7.6h-2.3V141.8z"/>
	<path d="M359.4,145.1c0.1,3.1,2,4.4,4.3,4.4c1.6,0,2.6-0.3,3.5-0.7l0.4,1.6c-0.8,0.4-2.2,0.8-4.2,0.8c-3.9,0-6.2-2.5-6.2-6.3
		c0-3.8,2.2-6.8,5.9-6.8c4.1,0,5.2,3.6,5.2,5.9c0,0.5-0.1,0.8-0.1,1.1H359.4z M366.1,143.5c0-1.5-0.6-3.7-3.2-3.7
		c-2.3,0-3.3,2.1-3.5,3.7H366.1z"/>
	<path d="M382,132.5v15.2c0,1.1,0,2.4,0.1,3.2H380l-0.1-2.2h-0.1c-0.7,1.4-2.2,2.5-4.3,2.5c-3,0-5.4-2.6-5.4-6.4
		c0-4.2,2.6-6.8,5.6-6.8c1.9,0,3.2,0.9,3.8,1.9h0.1v-7.5H382z M379.7,143.5c0-0.3,0-0.7-0.1-1c-0.3-1.5-1.6-2.7-3.3-2.7
		c-2.4,0-3.8,2.1-3.8,4.9c0,2.5,1.2,4.7,3.7,4.7c1.5,0,2.9-1,3.4-2.7c0.1-0.3,0.1-0.6,0.1-1V143.5z"/>
	<path d="M394.1,134.8v3.6h3.3v1.7h-3.3v6.8c0,1.6,0.4,2.4,1.7,2.4c0.6,0,1-0.1,1.3-0.2l0.1,1.7c-0.4,0.2-1.1,0.3-2,0.3
		c-1.1,0-1.9-0.3-2.5-1c-0.6-0.7-0.9-1.8-0.9-3.3v-6.9h-2v-1.7h2v-3L394.1,134.8z"/>
	<path d="M401,145.1c0.1,3.1,2,4.4,4.3,4.4c1.6,0,2.6-0.3,3.5-0.7l0.4,1.6c-0.8,0.4-2.2,0.8-4.2,0.8c-3.9,0-6.2-2.5-6.2-6.3
		c0-3.8,2.2-6.8,5.9-6.8c4.1,0,5.2,3.6,5.2,5.9c0,0.5-0.1,0.8-0.1,1.1H401z M407.7,143.5c0-1.5-0.6-3.7-3.2-3.7
		c-2.3,0-3.3,2.1-3.5,3.7H407.7z"/>
	<path d="M413.8,138.4l1.8,2.7c0.5,0.7,0.9,1.4,1.3,2.1h0.1c0.4-0.8,0.8-1.4,1.2-2.1l1.8-2.7h2.5l-4.3,6.1l4.4,6.5h-2.6l-1.8-2.8
		c-0.5-0.7-0.9-1.4-1.4-2.2h-0.1c-0.4,0.8-0.9,1.4-1.3,2.2l-1.8,2.8H411l4.5-6.4l-4.3-6.2H413.8z"/>
	<path d="M427.8,134.8v3.6h3.3v1.7h-3.3v6.8c0,1.6,0.4,2.4,1.7,2.4c0.6,0,1-0.1,1.3-0.2l0.1,1.7c-0.4,0.2-1.1,0.3-2,0.3
		c-1.1,0-1.9-0.3-2.5-1c-0.6-0.7-0.9-1.8-0.9-3.3v-6.9h-2v-1.7h2v-3L427.8,134.8z"/>
</g>
</svg>
