<svg xmlns="http://www.w3.org/2000/svg" viewBox="0 0 167.19 277.68"><defs><style>.a{fill:#5d8199;}.b{fill:#fb766a;}.c{fill:#2a4671;}.d{fill:#edeeed;}.e{fill:#f9b458;}.f{fill:#fc9188;}.g{fill:#7d9aad;}.h{fill:#ffca85;}</style></defs><title>tall_robot</title><rect class="a" x="29.35" y="45.22" width="28.72" height="43.78" rx="6.41" ry="6.41"/><path class="a" d="M115.53,45.22h15.9a6.41,6.41,0,0,1,6.41,6.41v31A6.41,6.41,0,0,1,131.43,89h-15.9a6.42,6.42,0,0,1-6.42-6.42v-31A6.41,6.41,0,0,1,115.53,45.22Z"/><path class="b" d="M639.56,261A45.51,45.51,0,0,0,594,306.5V455.78h91V306.5A45.51,45.51,0,0,0,639.56,261Z" transform="translate(-555.97 -260.99)"/><polygon class="c" points="83.59 189.64 0 189.64 0 217.16 83.59 217.16 167.19 217.16 167.19 189.64 83.59 189.64"/><circle class="d" cx="60.84" cy="49.47" r="17.13"/><path class="e" d="M616.81,322.11a11.65,11.65,0,1,1,11.65-11.65A11.66,11.66,0,0,1,616.81,322.11Z" transform="translate(-555.97 -260.99)"/><circle class="c" cx="60.84" cy="49.47" r="8.39"/><path class="f" d="M616.81,292a18.46,18.46,0,0,0-18.44,18.44h36.88A18.46,18.46,0,0,0,616.81,292Z" transform="translate(-555.97 -260.99)"/><circle class="d" cx="106.35" cy="49.47" r="17.13"/><path class="e" d="M662.32,322.11A11.65,11.65,0,1,1,674,310.46,11.66,11.66,0,0,1,662.32,322.11Z" transform="translate(-555.97 -260.99)"/><circle class="c" cx="106.35" cy="49.47" r="8.39"/><path class="f" d="M662.32,292a18.46,18.46,0,0,0-18.44,18.44h36.88A18.46,18.46,0,0,0,662.32,292Z" transform="translate(-555.97 -260.99)"/><rect class="d" x="92.42" y="135.71" width="29.76" height="29.76"/><polygon class="e" points="92.42 135.71 92.42 165.47 122.19 135.71 92.42 135.71"/><rect class="g" x="67.64" y="227.45" width="15.95" height="5.15"/><rect class="a" x="83.59" y="227.45" width="15.95" height="5.15"/><rect class="h" x="67.64" y="232.6" width="15.95" height="5.15"/><rect class="e" x="83.59" y="232.6" width="15.95" height="5.15"/><rect class="g" x="67.64" y="217.16" width="15.95" height="5.15"/><rect class="a" x="83.59" y="217.16" width="15.95" height="5.15"/><rect class="h" x="67.64" y="222.3" width="15.95" height="5.15"/><rect class="e" x="83.59" y="222.3" width="15.95" height="5.15"/><circle class="f" cx="83.59" cy="254.31" r="23.37"/><path class="c" d="M639.56,525.26a10,10,0,1,1,10-10A10,10,0,0,1,639.56,525.26Z" transform="translate(-555.97 -260.99)"/><rect class="g" x="11.11" y="227.45" width="15.95" height="5.15"/><rect class="a" x="27.06" y="227.45" width="15.95" height="5.15"/><rect class="h" x="11.11" y="232.6" width="15.95" height="5.15"/><rect class="e" x="27.06" y="232.6" width="15.95" height="5.15"/><rect class="g" x="11.11" y="217.16" width="15.95" height="5.15"/><rect class="a" x="27.06" y="217.16" width="15.95" height="5.15"/><rect class="h" x="11.11" y="222.3" width="15.95" height="5.15"/><rect class="e" x="27.06" y="222.3" width="15.95" height="5.15"/><circle class="f" cx="27.06" cy="254.31" r="23.37"/><path class="c" d="M583,525.26a10,10,0,1,1,10-10A10,10,0,0,1,583,525.26Z" transform="translate(-555.97 -260.99)"/><rect class="g" x="124.17" y="227.45" width="15.95" height="5.15"/><rect class="a" x="140.13" y="227.45" width="15.95" height="5.15"/><rect class="h" x="124.17" y="232.6" width="15.95" height="5.15"/><rect class="e" x="140.13" y="232.6" width="15.95" height="5.15"/><rect class="g" x="124.17" y="217.16" width="15.95" height="5.15"/><rect class="a" x="140.13" y="217.16" width="15.95" height="5.15"/><rect class="h" x="124.17" y="222.3" width="15.95" height="5.15"/><rect class="e" x="140.13" y="222.3" width="15.95" height="5.15"/><circle class="f" cx="140.13" cy="254.31" r="23.37"/><path class="c" d="M696.1,525.26a10,10,0,1,1,10-10A10,10,0,0,1,696.1,525.26Z" transform="translate(-555.97 -260.99)"/><path class="e" d="M663.91,353.22H615.22a9,9,0,0,0,0,18h48.68A9,9,0,0,0,663.91,353.22Zm0,12.69H615.22a3.69,3.69,0,1,1,0-7.39h48.68A3.69,3.69,0,1,1,663.91,365.91Z" transform="translate(-555.97 -260.99)"/><path class="d" d="M663.91,365.91a3.69,3.69,0,1,0,0-7.39H639.56v7.39h24.34Z" transform="translate(-555.97 -260.99)"/><path class="d" d="M611.53,362.22a3.7,3.7,0,0,0,3.69,3.69h24.34v-7.39H615.22A3.7,3.7,0,0,0,611.53,362.22Z" transform="translate(-555.97 -260.99)"/><rect class="d" x="47.13" y="137.26" width="9.67" height="9.67"/><rect class="d" x="64.87" y="137.26" width="9.67" height="9.67"/><rect class="d" x="47.13" y="154.24" width="9.67" height="9.67"/><rect class="d" x="64.87" y="154.24" width="9.67" height="9.67"/></svg>